<svg width="1024" height="1024" viewBox="0 0 1024 1024" fill="none" xmlns="http://www.w3.org/2000/svg">
  <defs>
    <linearGradient id="bg" x1="160" y1="120" x2="856" y2="920" gradientUnits="userSpaceOnUse">
      <stop stop-color="#0F172A"/>
      <stop offset="1" stop-color="#1E293B"/>
    </linearGradient>
    <linearGradient id="card" x1="330" y1="208" x2="702" y2="814" gradientUnits="userSpaceOnUse">
      <stop stop-color="#F8FBFF"/>
      <stop offset="1" stop-color="#DCE9F6"/>
    </linearGradient>
    <linearGradient id="tag" x1="224" y1="700" x2="514" y2="932" gradientUnits="userSpaceOnUse">
      <stop stop-color="#67E8F9"/>
      <stop offset="1" stop-color="#06B6D4"/>
    </linearGradient>
    <linearGradient id="spark" x1="674" y1="250" x2="772" y2="396" gradientUnits="userSpaceOnUse">
      <stop stop-color="#FDE68A"/>
      <stop offset="1" stop-color="#F59E0B"/>
    </linearGradient>
    <filter id="shadow" x="84" y="84" width="856" height="856" filterUnits="userSpaceOnUse" color-interpolation-filters="sRGB">
      <feFlood flood-opacity="0" result="BackgroundImageFix"/>
      <feColorMatrix in="SourceAlpha" type="matrix" values="0 0 0 0 0 0 0 0 0 0 0 0 0 0 0 0 0 0 127 0" result="hardAlpha"/>
      <feOffset dy="20"/>
      <feGaussianBlur stdDeviation="28"/>
      <feComposite in2="hardAlpha" operator="out"/>
      <feColorMatrix type="matrix" values="0 0 0 0 0.0588235 0 0 0 0 0.0941176 0 0 0 0 0.168627 0 0 0 0.28 0"/>
      <feBlend mode="normal" in2="BackgroundImageFix" result="effect1_dropShadow_1_1"/>
      <feBlend mode="normal" in="SourceGraphic" in2="effect1_dropShadow_1_1" result="shape"/>
    </filter>
  </defs>

  <g filter="url(#shadow)">
    <rect x="96" y="96" width="832" height="832" rx="216" fill="url(#bg)"/>
    <rect x="122" y="122" width="780" height="780" rx="190" stroke="#FFFFFF" stroke-opacity="0.08" stroke-width="2"/>
  </g>

  <g transform="rotate(-5 560 484)">
    <rect x="284" y="188" width="448" height="572" rx="110" fill="url(#card)"/>
    <rect x="324" y="240" width="368" height="468" rx="72" fill="#EAF3FA"/>
    <path d="M392 582L474 488L556 566L610 522L668 602" stroke="#1D4ED8" stroke-width="34" stroke-linecap="round" stroke-linejoin="round"/>
    <circle cx="602" cy="350" r="34" fill="#0EA5E9"/>
    <path d="M636 192V294C636 322 658 344 686 344H732" stroke="#CBD8E6" stroke-width="26" stroke-linecap="round" stroke-linejoin="round"/>
  </g>

  <g transform="rotate(-10 368 748)">
    <path d="M262 640H452C486 640 514 668 514 702V784C514 818 486 846 452 846H330L250 766V702C250 668 278 640 312 640H262Z" fill="url(#tag)"/>
    <circle cx="430" cy="704" r="24" fill="#E6FBFF"/>
    <rect x="300" y="706" width="112" height="26" rx="13" fill="#0F172A" fill-opacity="0.18"/>
    <rect x="300" y="748" width="86" height="22" rx="11" fill="#0F172A" fill-opacity="0.12"/>
  </g>

  <path d="M734 244L756 298L810 320L756 342L734 396L712 342L658 320L712 298L734 244Z" fill="url(#spark)"/>
  <circle cx="654" cy="404" r="18" fill="#FCD34D"/>
  <circle cx="786" cy="250" r="12" fill="#F8FAFC" fill-opacity="0.95"/>
  <circle cx="804" cy="392" r="10" fill="#F8FAFC" fill-opacity="0.8"/>
</svg>
