<svg width="1024" height="1024" viewBox="0 0 1024 1024" fill="none" xmlns="http://www.w3.org/2000/svg">
  <defs>
    <linearGradient id="bg" x1="164" y1="132" x2="870" y2="910" gradientUnits="userSpaceOnUse">
      <stop stop-color="#0F172A"/>
      <stop offset="1" stop-color="#1E293B"/>
    </linearGradient>
    <linearGradient id="amber" x1="740" y1="214" x2="548" y2="770" gradientUnits="userSpaceOnUse">
      <stop stop-color="#FFD661"/>
      <stop offset="1" stop-color="#F59E0B"/>
    </linearGradient>
    <linearGradient id="cyan" x1="282" y1="792" x2="470" y2="232" gradientUnits="userSpaceOnUse">
      <stop stop-color="#22C7D9"/>
      <stop offset="1" stop-color="#67E8F9"/>
    </linearGradient>
    <filter id="shadow" x="64" y="64" width="896" height="896" filterUnits="userSpaceOnUse" color-interpolation-filters="sRGB">
      <feFlood flood-opacity="0" result="BackgroundImageFix"/>
      <feColorMatrix in="SourceAlpha" type="matrix" values="0 0 0 0 0 0 0 0 0 0 0 0 0 0 0 0 0 0 127 0" result="hardAlpha"/>
      <feOffset dy="18"/>
      <feGaussianBlur stdDeviation="24"/>
      <feComposite in2="hardAlpha" operator="out"/>
      <feColorMatrix type="matrix" values="0 0 0 0 0.0588235 0 0 0 0 0.0941176 0 0 0 0 0.168627 0 0 0 0.28 0"/>
      <feBlend mode="normal" in2="BackgroundImageFix" result="effect1_dropShadow_1_1"/>
      <feBlend mode="normal" in="SourceGraphic" in2="effect1_dropShadow_1_1" result="shape"/>
    </filter>
  </defs>

  <g filter="url(#shadow)">
    <rect x="96" y="96" width="832" height="832" rx="220" fill="url(#bg)"/>
    <rect x="122" y="122" width="780" height="780" rx="194" stroke="#FFFFFF" stroke-opacity="0.08" stroke-width="2"/>
  </g>

  <path d="M713 246C798 317 828 447 791 548C754 650 654 740 532 776" stroke="url(#amber)" stroke-width="112" stroke-linecap="round"/>
  <path d="M311 778C226 708 196 578 233 476C270 375 370 286 492 250" stroke="url(#cyan)" stroke-width="112" stroke-linecap="round"/>

  <circle cx="575" cy="382" r="58" fill="#FFC94D"/>
  <circle cx="449" cy="642" r="58" fill="#31C2D4"/>

  <path d="M773 245L791 290L836 308L791 326L773 371L755 326L710 308L755 290L773 245Z" fill="#F8FAFC"/>
  <circle cx="730" cy="242" r="10" fill="#F8FAFC" fill-opacity="0.9"/>
  <circle cx="821" cy="367" r="12" fill="#F8FAFC" fill-opacity="0.78"/>
</svg>
